<svg xmlns="http://www.w3.org/2000/svg" width="1200" height="675" viewBox="0 0 1200 675" fill="none">
  <rect width="1200" height="675" rx="20" fill="#f8fafc"/>
  <rect x="80" y="80" width="480" height="120" rx="12" fill="#eef2ff"/>
  <rect x="80" y="220" width="480" height="320" rx="12" fill="#fff" stroke="#e6edf3"/>
  <rect x="620" y="80" width="480" height="460" rx="12" fill="#fff" stroke="#e6edf3"/>
  <g transform="translate(120 140)">
    <circle cx="40" cy="-20" r="32" fill="#7c3aed"/>
    <text x="92" y="-2" fill="#0f172a" font-family="Arial, Helvetica, sans-serif" font-size="28">KLE Course</text>
  </g>
  <g transform="translate(120 260)" fill="#0f172a" font-family="Arial, Helvetica, sans-serif">
    <rect x="0" y="0" width="360" height="28" rx="6" fill="#eef2ff"/>
    <rect x="0" y="44" width="320" height="22" rx="6" fill="#f1f5f9"/>
    <rect x="0" y="78" width="280" height="22" rx="6" fill="#f1f5f9"/>
    <rect x="0" y="112" width="240" height="22" rx="6" fill="#f1f5f9"/>
  </g>
  <g transform="translate(660 140)">
    <rect x="24" y="24" width="360" height="48" rx="8" fill="#eef2ff"/>
    <rect x="24" y="96" width="360" height="36" rx="8" fill="#f1f5f9"/>
    <rect x="24" y="152" width="360" height="36" rx="8" fill="#f1f5f9"/>
    <rect x="24" y="208" width="360" height="36" rx="8" fill="#f1f5f9"/>
    <rect x="24" y="264" width="240" height="36" rx="8" fill="#7c3aed"/>
    <text x="48" y="292" fill="#fff" font-family="Arial, Helvetica, sans-serif" font-size="16">Register</text>
  </g>
  <g transform="translate(420 520) scale(1.2)">
    <rect x="-120" y="-36" width="240" height="56" rx="12" fill="#fff" stroke="#e6edf3"/>
    <text x="-20" y="0" fill="#0f172a" font-family="Arial, Helvetica, sans-serif" font-size="18">MERN Stack</text>
  </g>
</svg>